# xmcd
#
# Track frame offsets:
#	150
#	16316
#	34725
#	53267
#	73584
#	91268
#	105228
#	121915
#	141402
#	158187
#	163295
#	180634
#	188203
#	208054
#	223926
#	246026
#	256171
#	266316
#	286163
#
# Disc length: 4034 seconds
#
# Revision: 0
# Processed by: cddbd v1.5.1PL0 Copyright (c) Steve Scherf et al.
# Submitted via: dBpowerAMP V4.0
#
DISCID=090fc013
DTITLE=Moby - Play
DYEAR=1900
DGENRE=
TTITLE0=Honey
TTITLE1=Find my Baby
TTITLE2=Porcelain
TTITLE3=Why Does My Heart Feel So Bad
TTITLE4=South Side
TTITLE5=Rushing
TTITLE6=Body Rock
TTITLE7=Natural Blues
TTITLE8=Machete
TTITLE9=7
TTITLE10=Run On
TTITLE11=Down Slow
TTITLE12=If Things Were Perfect
TTITLE13=Everloving
TTITLE14=Inside
TTITLE15=Guitar Flute and String
TTITLE16=The Sky Is Broken
TTITLE17=My Weakness
TTITLE18=Bonus
EXTD=
EXTT0=
EXTT1=
EXTT2=
EXTT3=
EXTT4=
EXTT5=
EXTT6=
EXTT7=
EXTT8=
EXTT9=
EXTT10=
EXTT11=
EXTT12=
EXTT13=
EXTT14=
EXTT15=
EXTT16=
EXTT17=
EXTT18=
PLAYORDER=
